PathFileType	4	(X/Y/Z)	Patient4_TMGait_0pt2_03_right_12.trc.trc
DataRate	CameraRate	NumFrames	NumMarkers	Units	OrigDataRate	OrigDataStartFrame	OrigNumFrames
48.109965635739	48.109965635739	5	33	mm	48.109965635739	106	       141
Frame#	Time	Sacral			L.Shoulder			Chest			R.Shoulder			Neck			R.ASIS			L.ASIS			R.Thigh.Superior			R.Thigh.Lateral			R.Thigh.Inferior			R.Patella			L.Thigh.Superior			L.Thigh.Lateral			L.Thigh.Inferior			L.Patella			L.Shank.Superior			L.Shank.Lateral			L.Shank.Inferior			R.Shank.Superior			R.Shank.Lateral			R.Shank.Inferior			R.Heel			R.Midfoot.Superior			R.Midfoot.Lateral			R.Toe			L.Heel			L.Midfoot.Lateral			L.Midfoot.Superior			L.Toe			L.Elbow			L.Wrist			R.Elbow			R.Wrist			
		X1	Y1	Z1	X2	Y2	Z2	X3	Y3	Z3	X4	Y4	Z4	X5	Y5	Z5	X6	Y6	Z6	X7	Y7	Z7	X8	Y8	Z8	X9	Y9	Z9	X10	Y10	Z10	X11	Y11	Z11	X12	Y12	Z12	X13	Y13	Z13	X14	Y14	Z14	X15	Y15	Z15	X16	Y16	Z16	X17	Y17	Z17	X18	Y18	Z18	X19	Y19	Z19	X20	Y20	Z20	X21	Y21	Z21	X22	Y22	Z22	X23	Y23	Z23	X24	Y24	Z24	X25	Y25	Z25	X26	Y26	Z26	X27	Y27	Z27	X28	Y28	Z28	X29	Y29	Z29	X30	Y30	Z30	X31	Y31	Z31	X32	Y32	Z32	X33	Y33	Z33	

106	27.942500000000	855.180726673040	988.300202465977	424.095868127748	1050.444106441492	1419.630747379408	250.289177908828	1139.899991906006	1346.366899653777	416.614955745787	1046.941518365059	1416.927079226729	586.038061187758	1019.799660481658	1479.885062684384	407.922766956697	1081.992745331102	932.895956227452	552.011353184743	1078.893163638607	942.907441218337	277.818150553640	1159.519014472329	749.820106593538	526.347779338738	1110.741002187272	633.720663288017	601.701682597307	1195.163789360956	585.337164762898	521.527473466789	1207.057359704488	474.895470008448	548.850051719968	1145.206237315017	741.970867746573	322.137096274039	1068.578091117628	603.584828124459	267.775681776047	1165.423774523616	547.932684900072	343.312861017073	1172.177031432775	473.297510210521	355.398010210889	1131.413631148162	396.877276088780	350.364693079042	1027.588206080177	295.248635771726	298.828249194544	1052.888026178359	181.091867437769	375.704460327309	1130.737108408996	403.765664446809	566.175196569306	1014.065245267868	369.298002237322	639.199858829059	995.883849140424	257.001908724832	598.086353670592	790.683158851496	189.081092049011	591.596636669007	966.243506769025	142.446536162154	624.993360986437	858.053995993725	136.341954915401	663.604408863542	1038.982817492069	35.473346554236	649.437077566927	903.184324881312	38.819886816499	414.536829852156	977.898946424086	36.516331477213	334.648302739606	1061.790834038685	94.899107984541	364.426132199107	1189.943053488595	42.167979193090	334.609727573731	1093.791436236513	1072.765127566267	120.629010833306	1202.896618673077	836.522551845373	141.985326677916	1032.458733333335	1060.654339828062	696.482319200433	1131.784415042742	819.201121982770	697.776305056248	
107	27.963285714286	854.457867372346	987.991647373677	421.982534330454	1051.700585705041	1420.094096551757	251.129323557726	1138.927286169422	1346.488820124466	418.449890155168	1043.385878779633	1416.222632945749	586.939990462707	1019.042183613648	1479.847234621510	408.631620727705	1080.526180294187	933.074870123325	551.683735312619	1079.505291113085	943.125477331679	277.364345041001	1160.371378824804	752.053427600344	525.067721409532	1113.788880525330	635.288605812608	600.471588473820	1198.537076891526	588.240108666861	519.866436903237	1212.747978585508	478.321987202473	547.291775157080	1144.794375778708	741.224203473710	321.770599586199	1067.367331312448	603.214351734468	267.323505021128	1163.448754854751	547.094725036495	343.456260239473	1169.835671754167	472.596046509667	355.802268557861	1128.679120814516	396.264808722590	350.552230384862	1024.567161658008	295.012760809511	298.788566548278	1049.179095866475	180.800627123518	375.803184577319	1137.950165451362	405.725867665176	564.883322862265	1021.847384750472	368.427130917506	637.018105849660	1007.120273837150	255.687586819952	596.258341236585	804.423220177782	181.930766086272	588.382862662960	980.583596356980	140.836369152393	623.049119239062	872.722409486386	131.780102269782	661.184708640230	1056.259535649523	36.219836023354	648.890617431130	898.952492678041	38.816952877125	414.475596406133	973.712145635497	36.502170301471	334.597720855236	1057.632895402754	94.866441489263	364.436816988707	1185.771955862288	42.105474725606	334.595726172716	1102.806819968962	1074.809189710083	120.558601714961	1224.203774095756	844.802867034938	144.808808632039	1009.699433094985	1061.798627257279	696.572058973569	1088.367187124123	812.468831568145	699.816024634564	
108	27.984071428571	853.889993371012	988.564510062406	420.141399369232	1053.189950499369	1421.282343569964	252.319669570753	1138.078936648278	1347.362591965594	420.649883129925	1039.888215232196	1416.425907633220	588.031467881872	1018.414369498638	1480.525121572560	409.605561254103	1078.958433270525	933.881694444642	551.800867276661	1080.282363257173	944.005156200420	277.385765769805	1160.344193356930	754.475393639210	524.545356280468	1115.294185485204	637.259943166454	599.918287979119	1200.267898683050	591.261198898544	519.086480013689	1216.671218067025	482.271435658935	546.549373472011	1143.821312366390	740.752308490871	321.867867426939	1065.258256799823	603.421533060854	267.030252577973	1160.276605665053	546.520679244406	343.750314037170	1166.076375733602	472.264221180505	356.286373305184	1124.783067598793	396.123057142463	350.740376262602	1020.714683969412	294.961739443578	298.720646551982	1045.044361050793	180.748902152264	375.851737229284	1144.062880879717	408.016021102797	564.244316978195	1029.172639371538	366.622793578786	635.416704003136	1019.172545689654	253.517167555444	594.813050068480	820.166064762030	171.748428142671	585.299598584829	996.983219435163	138.129849992873	621.244931871140	889.793743349469	124.933054759893	658.873740238555	1076.597779752231	37.206753988868	648.441154390136	894.692316297851	38.794162354652	414.409742559372	969.497718698866	36.477452694631	334.537901724893	1053.427061788337	94.861974570949	364.404720917479	1181.565108174698	42.118493971515	334.584810160765	1111.599019920976	1078.059135494515	120.320244180577	1245.897635173543	855.500108291731	147.889822954564	986.783185863953	1064.904731362595	696.189705691495	1045.829339294310	809.987885592367	700.744664356666	
109	28.004857142857	853.443195896215	989.934324180606	418.540504192123	1054.944428543978	1423.104912397459	253.846039715999	1137.343509421741	1348.901090620489	423.216368213793	1036.428751723190	1417.479721073646	589.287797326914	1017.926368268359	1481.842529882129	410.820590876616	1077.239838133454	935.252424051911	552.380602959532	1081.206217098691	945.464623361258	277.904640420427	1159.468780181850	756.999597844024	524.771216501560	1115.310588364221	639.515432151950	600.045490890087	1200.430983075863	594.278866446518	519.183200195006	1218.882305671505	486.600983383774	546.611821808631	1142.303508770759	740.529135093780	322.436318413950	1062.321255570224	604.163964502187	266.892022628184	1155.991685528673	546.200325165001	344.186521154641	1161.003570613440	472.286028397890	356.835380837327	1119.821124928111	396.420428500701	350.923380274704	1016.104655165916	295.080213161293	298.622029238887	1040.521750165071	180.918997850706	375.858626547361	1149.099628881539	410.557861371596	564.242753450533	1036.156547964419	363.987222260844	634.498471766814	1031.928033370089	250.711815412870	593.828206542804	837.799134984542	159.192571542418	582.628719616059	1015.197236379259	134.643612203747	619.657044877587	909.106556402706	116.301570670140	656.838921414790	1099.535827633217	38.566127524315	647.990734142621	890.409645014999	38.751543885880	414.341429379388	965.258918544874	36.443136856449	334.470918761206	1049.179448521904	94.882540858108	364.337548200844	1177.327733161011	42.197687453087	334.579044610626	1120.285683429907	1082.401380752631	119.933468178140	1267.771143280661	868.553563970816	151.210841923805	964.083826697767	1069.827801403119	695.263385725520	1004.903689112274	811.262520645722	700.655916593174	
110	28.025642857143	853.085943439533	991.956213194987	417.156168809114	1056.971369750388	1425.418528933547	255.694664808751	1136.700813198550	1350.966501181774	426.142927158525	1032.991463202571	1419.265414361329	590.691375104935	1017.577587372706	1483.673116846946	412.257896488656	1075.345337917829	937.071452707926	553.425836744246	1082.250640863234	947.378161264379	278.926629589652	1157.804616574187	759.506634616263	525.714159680236	1113.938753787332	641.908165331647	600.837681123143	1199.146377347646	597.152790966024	520.123829429317	1219.477191194393	491.135125129271	547.433411249857	1140.287894940272	740.503905426249	323.453594997654	1058.664891702150	605.364812590424	266.890471060217	1150.731762839721	546.099689970037	344.740362384213	1154.782720319125	472.619424124463	357.424219371393	1113.942081279163	397.096802660429	351.090414617183	1010.847141535225	295.339283529809	298.489509629229	1035.668635345592	181.280052772011	375.833156652786	1153.102053148585	413.253748181871	564.837917378490	1042.893882406893	360.666496275362	634.328592251388	1045.203745354711	247.527906262697	593.357512462678	857.086242445195	145.044095276865	580.615477963328	1034.853820572098	130.741419018217	618.344348025522	930.356260081236	106.488598742731	655.224552552905	1124.448100871106	40.439459747230	647.451103509958	886.111305846242	38.690055000889	414.272821986678	961.000308400105	36.400125857486	334.398989639227	1044.897489001269	94.923351203233	364.244373792985	1173.065908002601	42.332021848856	334.580083038949	1128.959879428667	1087.659602959846	119.455579801488	1289.596501558252	883.810256343422	154.756548267368	942.003590481093	1076.308131257962	693.778228830765	966.248402342739	815.651229695477	699.654446809620	
